<?xml version="1.0" encoding="utf-8"?>
<!-- Generator: Adobe Illustrator 21.0.0, SVG Export Plug-In . SVG Version: 6.00 Build 0)  -->
<svg version="1.1" id="Layer_1" xmlns="http://www.w3.org/2000/svg" xmlns:xlink="http://www.w3.org/1999/xlink" x="0px" y="0px"
	 viewBox="0 0 400 32.9" style="enable-background:new 0 0 400 32.9;" xml:space="preserve">
<style type="text/css">
	.st0{fill:#FFFFFF;}
</style>
<g>
	<polygon class="st0" points="4.2,0 0,4.3 0,15.6 4.1,19.8 12.9,19.8 12.9,27.4 5.5,27.4 5.5,23.1 0,23.1 0,28.7 4.2,32.9 
		14.2,32.9 18.4,28.7 18.4,18.6 14.1,14.3 5.5,14.3 5.5,5.5 12.9,5.5 12.9,11.9 18.4,11.9 18.4,4.3 14.2,0 	"/>
	<polygon class="st0" points="35.4,5.6 37.1,5.6 37.1,9.9 42.6,9.9 42.6,0 22.6,0 22.6,9.9 28,9.9 28,5.6 29.9,5.6 29.9,27.4 
		27.7,27.4 27.7,32.9 37.5,32.9 37.5,27.4 35.4,27.4 	"/>
	<path class="st0" d="M55.4,0h-5.6l-6.4,27.4h-2.1v5.5h9v-5.5h-1.5l0.7-3.1h5.7l0.7,3.1h-1.6v5.5h9v-5.5h-2L55.4,0z M50.8,18.8
		l1.6-7.2l1.6,7.2H50.8z"/>
	<polygon class="st0" points="81.1,5.5 83.1,5.5 83.1,17.4 75.8,0 67.5,0.1 67.5,5.5 69.7,5.5 69.7,27.4 67.5,27.4 67.5,32.9 
		77.3,32.9 77.3,27.4 75.2,27.4 75.2,15.5 82.4,32.9 90.8,32.9 90.8,27.4 88.7,27.4 88.7,5.5 90.8,5.5 90.8,0.1 81.1,0.1 	"/>
	<path class="st0" d="M95,0.1v5.5h2v21.9h-2v5.5h16.7l4.2-4.2V4.3l-4.2-4.2H95z M110.4,27.4h-7.8V5.6h7.8V27.4z"/>
	<polygon class="st0" points="144.2,10.6 145.3,10.6 144.1,18.3 141.2,6.8 138.2,6.8 135.3,18.3 134,10.6 135.2,10.6 135.2,6.8 
		128.4,6.8 128.4,10.6 130,10.6 133.4,29.6 136.7,29.6 139.7,15.9 142.6,29.6 145.9,29.6 149.3,10.6 151,10.6 151,6.8 144.2,6.8 	
		"/>
	<polygon class="st0" points="153.9,10.6 155.4,10.6 155.4,25.8 153.9,25.8 153.9,29.6 160.7,29.6 160.7,25.8 159.2,25.8 
		159.2,10.6 160.7,10.6 160.7,6.8 153.9,6.8 	"/>
	<polygon class="st0" points="163.5,13.6 167.3,13.6 167.3,10.6 168.6,10.6 168.6,25.8 167.1,25.8 167.1,29.6 173.9,29.6 
		173.9,25.8 172.5,25.8 172.5,10.6 173.6,10.6 173.6,13.6 177.4,13.6 177.4,6.8 163.5,6.8 	"/>
	<polygon class="st0" points="188.7,10.6 190.2,10.6 190.2,16.3 185.6,16.3 185.6,10.6 187.1,10.6 187.1,6.8 180.3,6.8 180.3,10.6 
		181.7,10.6 181.7,25.8 180.3,25.8 180.3,29.6 187.1,29.6 187.1,25.8 185.6,25.8 185.6,20.1 190.2,20.1 190.2,25.8 188.7,25.8 
		188.7,29.6 195.5,29.6 195.5,25.8 194.1,25.8 194.1,10.6 195.5,10.6 195.5,6.8 188.7,6.8 	"/>
	<polygon class="st0" points="211.3,0 207.1,4.3 207.1,15.6 211.2,19.8 220,19.8 220,27.4 212.6,27.4 212.6,23.1 207.1,23.1 
		207.1,28.7 211.3,32.9 221.3,32.9 225.5,28.7 225.5,18.6 221.2,14.3 212.6,14.3 212.6,5.5 220,5.5 220,11.9 225.5,11.9 225.5,4.3 
		221.3,0 	"/>
	<polygon class="st0" points="229.6,9.9 235.1,9.9 235.1,5.6 236.9,5.6 236.9,27.4 234.8,27.4 234.8,32.9 244.5,32.9 244.5,27.4 
		242.5,27.4 242.5,5.6 244.2,5.6 244.2,9.9 249.6,9.9 249.6,0 229.6,0 	"/>
	<path class="st0" d="M273.7,18l-1.5-1.5l1.5-1.5V4.3L269.4,0h-15.7v5.5h2v21.9h-2v5.5h9.8v-5.5h-2.1v-7.5h6.8v7.5H266v5.5h9.8v-5.5
		h-2.1V18z M268.2,14.4h-6.8V5.6h6.8V14.4z"/>
	<polygon class="st0" points="293.5,5.5 295.5,5.5 295.5,17.4 288.3,0 279.9,0.1 279.9,5.5 282.1,5.5 282.1,27.4 279.9,27.4 
		279.9,32.9 289.7,32.9 289.7,27.4 287.6,27.4 287.6,15.5 294.9,32.9 303.3,32.9 303.3,27.4 301.1,27.4 301.1,5.5 303.3,5.5 
		303.3,0.1 293.5,0.1 	"/>
	<path class="st0" d="M321.4,0h-5.6l-6.4,27.4h-2.1v5.5h9v-5.5h-1.5l0.7-3.1h5.7l0.7,3.1h-1.6v5.5h9v-5.5h-2L321.4,0z M316.8,18.8
		l1.6-7.2l1.6,7.2H316.8z"/>
	<path class="st0" d="M333.6,0.1v5.5h2v21.9h-2v5.5h16.7l4.2-4.2V4.3l-4.2-4.2H333.6z M348.9,27.4h-7.8V5.6h7.8V27.4z"/>
	<polygon class="st0" points="358.6,5.5 360.6,5.5 360.6,27.4 358.6,27.4 358.6,32.9 377.2,32.9 377.2,23.1 371.8,23.1 371.8,27.4 
		366.2,27.4 366.2,19.2 373.4,19.2 373.4,13.7 366.2,13.7 366.2,5.5 371.8,5.5 371.8,9.9 377.2,9.9 377.2,0 358.6,0 	"/>
	<polygon class="st0" points="394.5,23.1 394.5,27.4 389,27.4 389,5.5 391.1,5.5 391.1,0.1 381.4,0.1 381.4,5.5 383.4,5.5 
		383.4,27.4 381.4,27.4 381.4,32.9 400,32.9 400,23.1 	"/>
</g>
</svg>
